<svg xmlns="http://www.w3.org/2000/svg" viewBox="0 0 24 24" role="img" height="32" fill="white">
  <title>Spotify</title>
  <path d="M12 0C5.373 0 0 5.373 0 12s5.373 12 12 12 
           12-5.373 12-12S18.627 0 12 0zm5.325 17.538a.749.749 
           0 01-1.032.249c-2.829-1.73-6.396-2.123-10.602-1.166a.75.75 
           0 11-.326-1.464c4.543-1.012 8.493-.562 
           11.648 1.312.36.22.474.686.25 1.035zm1.474-3.186a.937.937 
           0 01-1.29.312c-3.24-1.98-8.185-2.557-12.007-1.405a.938.938 
           0 11-.55-1.8c4.308-1.316 9.728-.682 13.42 1.629.45.276.592.869.314 1.264zm.127-3.373c-3.875-2.297-10.254-2.505-13.933-1.381a1.124 
           1.124 0 01-.66-2.146c4.206-1.293 11.23-1.053 
           15.657 1.562a1.123 1.123 0 01-1.064 1.965z"/>
</svg>
